<mxfile host="app.diagrams.net" modified="2022-04-21T10:25:55.037Z" agent="5.0 (Macintosh)" etag="5sES5ELUKw-MpJ8JZfnt" version="17.4.5" type="github">
  <diagram id="Ctb8atrKr-lSdn9V6sIk" name="Page-1">
    <mxGraphModel dx="786" dy="449" grid="1" gridSize="10" guides="1" tooltips="1" connect="1" arrows="1" fold="1" page="1" pageScale="1" pageWidth="827" pageHeight="1169" math="0" shadow="0">
      <root>
        <mxCell id="0" />
        <mxCell id="1" parent="0" />
        <mxCell id="9-sKXbIfnFHoNNmiNe9U-22" style="edgeStyle=orthogonalEdgeStyle;rounded=0;orthogonalLoop=1;jettySize=auto;html=1;" parent="1" source="9-sKXbIfnFHoNNmiNe9U-18" target="tLIMDpo4Zzke8Ey1Oe-K-1" edge="1">
          <mxGeometry relative="1" as="geometry">
            <mxPoint x="298" y="270" as="targetPoint" />
            <Array as="points">
              <mxPoint x="228" y="200" />
              <mxPoint x="228" y="270" />
            </Array>
          </mxGeometry>
        </mxCell>
        <mxCell id="9-sKXbIfnFHoNNmiNe9U-18" value="" style="outlineConnect=0;dashed=0;verticalLabelPosition=bottom;verticalAlign=top;align=center;html=1;shape=mxgraph.aws3.mobile_client;fillColor=#D2D3D3;gradientColor=none;" parent="1" vertex="1">
          <mxGeometry x="66" y="160" width="40.5" height="63" as="geometry" />
        </mxCell>
        <mxCell id="9-sKXbIfnFHoNNmiNe9U-21" style="edgeStyle=orthogonalEdgeStyle;rounded=0;orthogonalLoop=1;jettySize=auto;html=1;" parent="1" source="9-sKXbIfnFHoNNmiNe9U-19" target="tLIMDpo4Zzke8Ey1Oe-K-1" edge="1">
          <mxGeometry relative="1" as="geometry">
            <mxPoint x="318" y="300" as="targetPoint" />
          </mxGeometry>
        </mxCell>
        <mxCell id="9-sKXbIfnFHoNNmiNe9U-19" value="" style="outlineConnect=0;dashed=0;verticalLabelPosition=bottom;verticalAlign=top;align=center;html=1;shape=mxgraph.aws3.management_console;fillColor=#D2D3D3;gradientColor=none;" parent="1" vertex="1">
          <mxGeometry x="48" y="280" width="63" height="63" as="geometry" />
        </mxCell>
        <mxCell id="tLIMDpo4Zzke8Ey1Oe-K-3" style="edgeStyle=orthogonalEdgeStyle;rounded=0;orthogonalLoop=1;jettySize=auto;html=1;" parent="1" source="9-sKXbIfnFHoNNmiNe9U-20" target="tLIMDpo4Zzke8Ey1Oe-K-2" edge="1">
          <mxGeometry relative="1" as="geometry" />
        </mxCell>
        <mxCell id="9-sKXbIfnFHoNNmiNe9U-20" value="REST API" style="outlineConnect=0;dashed=0;verticalLabelPosition=bottom;verticalAlign=top;align=center;html=1;shape=mxgraph.aws3.api_gateway;fillColor=#D9A741;gradientColor=none;" parent="1" vertex="1">
          <mxGeometry x="447" y="223" width="76.5" height="93" as="geometry" />
        </mxCell>
        <mxCell id="9-sKXbIfnFHoNNmiNe9U-25" value="Cache" style="outlineConnect=0;dashed=0;verticalLabelPosition=bottom;verticalAlign=top;align=center;html=1;shape=mxgraph.aws3.generic_database;fillColor=#7D7C7C;gradientColor=none;" parent="1" vertex="1">
          <mxGeometry x="298" y="70" width="49.5" height="64.5" as="geometry" />
        </mxCell>
        <mxCell id="g8lu4-ySnROZFewsK_QF-1" style="edgeStyle=orthogonalEdgeStyle;rounded=0;orthogonalLoop=1;jettySize=auto;html=1;entryX=0.5;entryY=1;entryDx=0;entryDy=0;entryPerimeter=0;" edge="1" parent="1" source="tLIMDpo4Zzke8Ey1Oe-K-1" target="9-sKXbIfnFHoNNmiNe9U-25">
          <mxGeometry relative="1" as="geometry" />
        </mxCell>
        <mxCell id="g8lu4-ySnROZFewsK_QF-2" style="edgeStyle=orthogonalEdgeStyle;rounded=0;orthogonalLoop=1;jettySize=auto;html=1;" edge="1" parent="1" source="tLIMDpo4Zzke8Ey1Oe-K-1" target="9-sKXbIfnFHoNNmiNe9U-20">
          <mxGeometry relative="1" as="geometry" />
        </mxCell>
        <mxCell id="tLIMDpo4Zzke8Ey1Oe-K-1" value="Amazon API Gateway" style="sketch=0;outlineConnect=0;fontColor=#232F3E;gradientColor=none;strokeColor=#ffffff;fillColor=#232F3E;dashed=0;verticalLabelPosition=middle;verticalAlign=bottom;align=center;html=1;whiteSpace=wrap;fontSize=10;fontStyle=1;spacing=3;shape=mxgraph.aws4.productIcon;prIcon=mxgraph.aws4.api_gateway;" parent="1" vertex="1">
          <mxGeometry x="283" y="233" width="80" height="110" as="geometry" />
        </mxCell>
        <mxCell id="tLIMDpo4Zzke8Ey1Oe-K-2" value="Store" style="outlineConnect=0;dashed=0;verticalLabelPosition=bottom;verticalAlign=top;align=center;html=1;shape=mxgraph.aws3.generic_database;fillColor=#7D7C7C;gradientColor=none;" parent="1" vertex="1">
          <mxGeometry x="461" y="60" width="49.5" height="64.5" as="geometry" />
        </mxCell>
      </root>
    </mxGraphModel>
  </diagram>
</mxfile>
